<svg width="159" height="55" viewBox="0 0 159 55" fill="none" xmlns="http://www.w3.org/2000/svg">
<path d="M53.1855 4C55.0775 7.91616 58.0352 11.2196 61.7193 13.5312C65.4033 15.8428 69.6645 17.069 74.0137 17.069C78.3629 17.069 82.6241 15.8428 86.3081 13.5312C89.9922 11.2196 92.9499 7.91616 94.8418 4" stroke="url(#paint0_linear_574_11)" stroke-width="7" stroke-miterlimit="10" stroke-linecap="round"/>
<path d="M60.2949 23.44C62.7077 26.4195 64.6392 29.7583 66.0194 33.3351C67.6767 37.6565 68.4414 42.2689 68.2675 46.894L73.9121 50.2537L79.7472 46.894C79.5761 42.2688 80.3418 37.6568 81.9983 33.3351C83.3636 29.7511 85.2964 26.4101 87.7228 23.44" stroke="url(#paint1_linear_574_11)" stroke-width="7" stroke-miterlimit="10"/>
<path d="M115.842 40.4846H96.2084C96.3681 42.4235 97.0468 43.9416 98.2445 45.039C99.4445 46.1407 101.026 46.7321 102.655 46.6882C105.175 46.6882 106.969 45.6061 108.038 43.442H115.357C114.605 45.9964 113.039 48.2352 110.897 49.8176C108.699 51.4822 106 52.3144 102.802 52.3144C100.372 52.3541 97.9737 51.7603 95.8429 50.5915C93.8037 49.4646 92.1328 47.7734 91.0305 45.7208C89.851 43.4802 89.2593 40.977 89.3107 38.4454C89.3107 35.665 89.8758 33.2255 91.006 31.127C92.0837 29.0825 93.7349 27.3971 95.7569 26.2777C97.9029 25.1701 100.281 24.5881 102.696 24.5795C105.111 24.571 107.494 25.1362 109.647 26.2286C111.645 27.2944 113.287 28.9214 114.371 30.9089C115.514 33.0463 116.089 35.4415 116.041 37.8649C116.047 38.7421 115.98 39.6183 115.842 40.4846ZM109.006 35.9209C109.02 35.1256 108.859 34.3368 108.532 33.6115C108.205 32.8861 107.722 32.2421 107.117 31.7258C105.858 30.6644 104.252 30.1035 102.605 30.1503C101.049 30.1086 99.5335 30.6571 98.3643 31.6859C97.2157 32.7096 96.5124 34.1243 96.2545 35.9301L109.006 35.9209Z" fill="white"/>
<path d="M123.891 51.1259C122.256 50.421 120.829 49.3099 119.745 47.8982C118.748 46.5972 118.165 45.0264 118.071 43.3898H124.908C124.972 43.9008 125.141 44.3928 125.406 44.8347C125.67 45.2767 126.023 45.6589 126.443 45.9573C127.403 46.6577 128.569 47.0166 129.757 46.9769C131.049 46.9769 132.058 46.7179 132.785 46.1999C133.12 45.9881 133.396 45.6947 133.588 45.3472C133.779 44.9998 133.879 44.6095 133.878 44.2129C133.878 43.3407 133.434 42.6865 132.545 42.2504C131.176 41.6527 129.755 41.1789 128.301 40.8347C126.63 40.4508 124.988 39.949 123.387 39.3329C122.113 38.8164 120.982 38.0012 120.089 36.9559C119.168 35.8912 118.707 34.4529 118.707 32.641C118.693 31.1767 119.141 29.7453 119.988 28.5503C120.923 27.2578 122.199 26.2508 123.673 25.642C125.459 24.8927 127.384 24.5285 129.321 24.5732C132.521 24.5732 135.074 25.3738 136.98 26.9748C138.886 28.5759 139.936 30.739 140.131 33.4641H133.636C133.604 32.9704 133.469 32.4889 133.24 32.0508C133.01 31.6127 132.691 31.2278 132.303 30.9212C131.51 30.2885 130.452 29.9732 129.127 29.9753C127.899 29.9753 126.953 30.1995 126.29 30.654C125.974 30.8549 125.716 31.1349 125.541 31.4661C125.366 31.7974 125.282 32.1685 125.295 32.5427C125.295 33.4497 125.748 34.1366 126.655 34.6034C127.562 35.0702 128.968 35.5473 130.872 36.0346C132.505 36.4227 134.109 36.9256 135.672 37.5394C136.937 38.0552 138.058 38.8698 138.939 39.9133C139.861 40.9964 140.338 42.4296 140.37 44.2129C140.39 45.7032 139.941 47.162 139.087 48.3834C138.154 49.6721 136.877 50.6716 135.401 51.2672C133.627 51.9958 131.721 52.3512 129.803 52.3113C127.77 52.344 125.754 51.9398 123.891 51.1259Z" fill="white"/>
<path d="M152.397 30.5926V43.5987C152.397 44.5057 152.615 45.1598 153.051 45.5611C153.49 45.9665 154.224 46.1753 155.259 46.1753H158.41V51.8906H154.144C148.424 51.8906 145.557 49.1113 145.545 43.5526V30.5926H142.36V25.0186H145.56V18.3758H152.397V25.0186H158.41V30.5926H152.397Z" fill="white"/>
<path d="M14.643 30.5926H9.95341V51.8906H3.05267V30.6079H0V25.0155H3.05267V23.6581C3.05267 20.3618 3.99037 17.9376 5.86579 16.3857C7.7412 14.8338 10.5697 14.107 14.3512 14.2052V19.9267C12.701 19.8919 11.5534 20.1662 10.9085 20.7497C10.2636 21.3332 9.94522 22.3836 9.95341 23.9007V25.0155H14.6583L14.643 30.5926Z" fill="white"/>
<path d="M19.2216 20.676C18.8469 20.3048 18.5495 19.8631 18.3465 19.3763C18.1436 18.8895 18.0391 18.3673 18.0391 17.8399C18.0391 17.3125 18.1436 16.7903 18.3465 16.3035C18.5495 15.8167 18.8469 15.3749 19.2216 15.0037C20.0415 14.2699 21.1032 13.8642 22.2036 13.8642C23.304 13.8642 24.3657 14.2699 25.1856 15.0037C25.5603 15.3749 25.8577 15.8167 26.0607 16.3035C26.2636 16.7903 26.3681 17.3125 26.3681 17.8399C26.3681 18.3673 26.2636 18.8895 26.0607 19.3763C25.8577 19.8631 25.5603 20.3048 25.1856 20.676C24.3657 21.4099 23.304 21.8156 22.2036 21.8156C21.1032 21.8156 20.0415 21.4099 19.2216 20.676ZM25.548 25.0155V51.8906H18.7609V25.0155H25.548Z" fill="white"/>
<path d="M54.5914 27.6597C56.5671 29.6866 57.555 32.5069 57.555 36.1206V51.8906H50.7587V37.0388C50.7587 34.9075 50.2264 33.2696 49.1617 32.1251C48.0971 30.9806 46.6424 30.4032 44.7977 30.393C42.9223 30.393 41.443 30.9662 40.36 32.1128C39.2769 33.2593 38.7354 34.8972 38.7354 37.0265V51.8906H31.9482V25.0155H38.7354V28.363C39.6558 27.1874 40.8434 26.2482 42.1995 25.6236C43.6497 24.9504 45.2321 24.6105 46.8308 24.6285C50.0329 24.6285 52.6198 25.6389 54.5914 27.6597Z" fill="white"/>
<defs>
<linearGradient id="paint0_linear_574_11" x1="74.0137" y1="4" x2="74.0137" y2="17.069" gradientUnits="userSpaceOnUse">
<stop stop-color="#01D88A"/>
<stop offset="1" stop-color="#00EEE0"/>
</linearGradient>
<linearGradient id="paint1_linear_574_11" x1="74.0089" y1="23.44" x2="74.0089" y2="50.2537" gradientUnits="userSpaceOnUse">
<stop stop-color="#01D88A"/>
<stop offset="1" stop-color="#00EEE0"/>
</linearGradient>
</defs>
</svg>
