<svg width="709" height="159" viewBox="0 0 709 159" fill="none" xmlns="http://www.w3.org/2000/svg">
<g filter="url(#filter0_d_102_4)">
<path d="M67.5285 148.33C51.4418 148.33 38.1418 144.593 27.6284 137.12C17.2418 129.52 11.6051 118.437 10.7184 103.87H55.5584C56.1918 111.597 59.6118 115.46 65.8184 115.46C68.0984 115.46 69.9984 114.953 71.5184 113.94C73.1651 112.8 73.9884 111.09 73.9884 108.81C73.9884 105.643 72.2784 103.11 68.8584 101.21C65.4384 99.1833 60.1184 96.9034 52.8984 94.37C44.2851 91.33 37.1284 88.3533 31.4284 85.44C25.8551 82.5267 21.0418 78.2833 16.9884 72.71C12.9351 67.1367 10.9718 59.98 11.0984 51.24C11.0984 42.5 13.3151 35.09 17.7484 29.01C22.3084 22.8033 28.4518 18.1167 36.1784 14.95C44.0318 11.7833 52.8351 10.2 62.5885 10.2C79.0551 10.2 92.1018 14 101.728 21.6C111.482 29.2 116.612 39.9033 117.118 53.71H71.7084C71.5818 49.91 70.6318 47.1867 68.8584 45.54C67.0851 43.8933 64.9318 43.07 62.3984 43.07C60.6251 43.07 59.1684 43.7033 58.0284 44.97C56.8884 46.11 56.3184 47.7567 56.3184 49.91C56.3184 52.95 57.9651 55.4833 61.2584 57.51C64.6784 59.41 70.0618 61.7533 77.4084 64.54C85.8951 67.7067 92.8618 70.7467 98.3084 73.66C103.882 76.5733 108.695 80.6267 112.748 85.82C116.802 91.0133 118.828 97.5367 118.828 105.39C118.828 113.623 116.802 121.033 112.748 127.62C108.695 134.08 102.805 139.147 95.0785 142.82C87.3518 146.493 78.1684 148.33 67.5285 148.33Z" fill="white"/>
<path d="M262.658 147H220.478L175.828 79.36V147H133.648V12.48H175.828L220.478 81.26V12.48H262.658V147Z" fill="white"/>
<path d="M323.895 12.48V147H281.715V12.48H323.895Z" fill="white"/>
<path d="M437.945 12.48V45.92H385.125V64.54H423.125V96.27H385.125V147H342.945V12.48H437.945Z" fill="white"/>
<path d="M557.872 12.48V45.92H522.152V147H479.972V45.92H444.632V12.48H557.872Z" fill="white"/>
<path d="M698.513 12.48L650.253 106.15V147H608.073V106.15L559.812 12.48H608.073L629.542 60.17L651.013 12.48H698.513Z" fill="white"/>
</g>
<defs>
<filter id="filter0_d_102_4" x="0.718445" y="0.200012" width="707.794" height="158.13" filterUnits="userSpaceOnUse" color-interpolation-filters="sRGB">
<feFlood flood-opacity="0" result="BackgroundImageFix"/>
<feColorMatrix in="SourceAlpha" type="matrix" values="0 0 0 0 0 0 0 0 0 0 0 0 0 0 0 0 0 0 127 0" result="hardAlpha"/>
<feOffset/>
<feGaussianBlur stdDeviation="5"/>
<feComposite in2="hardAlpha" operator="out"/>
<feColorMatrix type="matrix" values="0 0 0 0 1 0 0 0 0 1 0 0 0 0 1 0 0 0 0.25 0"/>
<feBlend mode="normal" in2="BackgroundImageFix" result="effect1_dropShadow_102_4"/>
<feBlend mode="normal" in="SourceGraphic" in2="effect1_dropShadow_102_4" result="shape"/>
</filter>
</defs>
</svg>
