<svg width="732" height="174" viewBox="0 0 732 174" fill="none" xmlns="http://www.w3.org/2000/svg">
<g style="mix-blend-mode:overlay" filter="url(#filter0_d_135_91)">
<path d="M81.5284 163.33C65.4418 163.33 52.1418 159.593 41.6284 152.12C31.2418 144.52 25.6051 133.437 24.7184 118.87H69.5584C70.1918 126.597 73.6118 130.46 79.8184 130.46C82.0984 130.46 83.9984 129.953 85.5184 128.94C87.1651 127.8 87.9884 126.09 87.9884 123.81C87.9884 120.643 86.2784 118.11 82.8584 116.21C79.4384 114.183 74.1184 111.903 66.8984 109.37C58.2851 106.33 51.1284 103.353 45.4284 100.44C39.8551 97.5267 35.0418 93.2833 30.9884 87.71C26.9351 82.1367 24.9718 74.98 25.0984 66.24C25.0984 57.5 27.3151 50.09 31.7484 44.01C36.3084 37.8033 42.4518 33.1167 50.1784 29.95C58.0318 26.7833 66.8351 25.2 76.5884 25.2C93.0551 25.2 106.102 29 115.728 36.6C125.482 44.2 130.612 54.9033 131.118 68.71H85.7084C85.5818 64.91 84.6318 62.1867 82.8584 60.54C81.0851 58.8933 78.9318 58.07 76.3984 58.07C74.6251 58.07 73.1684 58.7033 72.0284 59.97C70.8884 61.11 70.3184 62.7567 70.3184 64.91C70.3184 67.95 71.9651 70.4833 75.2584 72.51C78.6784 74.41 84.0618 76.7533 91.4084 79.54C99.8951 82.7067 106.862 85.7467 112.308 88.66C117.882 91.5733 122.695 95.6267 126.748 100.82C130.802 106.013 132.828 112.537 132.828 120.39C132.828 128.623 130.802 136.033 126.748 142.62C122.695 149.08 116.805 154.147 109.078 157.82C101.352 161.493 92.1684 163.33 81.5284 163.33ZM276.658 162H234.478L189.828 94.36V162H147.648V27.48H189.828L234.478 96.26V27.48H276.658V162ZM337.895 27.48V162H295.715V27.48H337.895ZM451.945 27.48V60.92H399.125V79.54H437.125V111.27H399.125V162H356.945V27.48H451.945ZM571.872 27.48V60.92H536.152V162H493.972V60.92H458.632V27.48H571.872ZM712.513 27.48L664.253 121.15V162H622.073V121.15L573.812 27.48H622.073L643.543 75.17L665.013 27.48H712.513Z" fill="white"/>
</g>
<g style="mix-blend-mode:overlay" filter="url(#filter1_d_135_91)">
<path d="M81.5284 163.33C65.4418 163.33 52.1418 159.593 41.6284 152.12C31.2418 144.52 25.6051 133.437 24.7184 118.87H69.5584C70.1918 126.597 73.6118 130.46 79.8184 130.46C82.0984 130.46 83.9984 129.953 85.5184 128.94C87.1651 127.8 87.9884 126.09 87.9884 123.81C87.9884 120.643 86.2784 118.11 82.8584 116.21C79.4384 114.183 74.1184 111.903 66.8984 109.37C58.2851 106.33 51.1284 103.353 45.4284 100.44C39.8551 97.5267 35.0418 93.2833 30.9884 87.71C26.9351 82.1367 24.9718 74.98 25.0984 66.24C25.0984 57.5 27.3151 50.09 31.7484 44.01C36.3084 37.8033 42.4518 33.1167 50.1784 29.95C58.0318 26.7833 66.8351 25.2 76.5884 25.2C93.0551 25.2 106.102 29 115.728 36.6C125.482 44.2 130.612 54.9033 131.118 68.71H85.7084C85.5818 64.91 84.6318 62.1867 82.8584 60.54C81.0851 58.8933 78.9318 58.07 76.3984 58.07C74.6251 58.07 73.1684 58.7033 72.0284 59.97C70.8884 61.11 70.3184 62.7567 70.3184 64.91C70.3184 67.95 71.9651 70.4833 75.2584 72.51C78.6784 74.41 84.0618 76.7533 91.4084 79.54C99.8951 82.7067 106.862 85.7467 112.308 88.66C117.882 91.5733 122.695 95.6267 126.748 100.82C130.802 106.013 132.828 112.537 132.828 120.39C132.828 128.623 130.802 136.033 126.748 142.62C122.695 149.08 116.805 154.147 109.078 157.82C101.352 161.493 92.1684 163.33 81.5284 163.33ZM276.658 162H234.478L189.828 94.36V162H147.648V27.48H189.828L234.478 96.26V27.48H276.658V162ZM337.895 27.48V162H295.715V27.48H337.895ZM451.945 27.48V60.92H399.125V79.54H437.125V111.27H399.125V162H356.945V27.48H451.945ZM571.872 27.48V60.92H536.152V162H493.972V60.92H458.632V27.48H571.872ZM712.513 27.48L664.253 121.15V162H622.073V121.15L573.812 27.48H622.073L643.543 75.17L665.013 27.48H712.513Z" fill="white"/>
</g>
<g style="mix-blend-mode:overlay" filter="url(#filter2_d_135_91)">
<path d="M81.5284 163.33C65.4418 163.33 52.1418 159.593 41.6284 152.12C31.2418 144.52 25.6051 133.437 24.7184 118.87H69.5584C70.1918 126.597 73.6118 130.46 79.8184 130.46C82.0984 130.46 83.9984 129.953 85.5184 128.94C87.1651 127.8 87.9884 126.09 87.9884 123.81C87.9884 120.643 86.2784 118.11 82.8584 116.21C79.4384 114.183 74.1184 111.903 66.8984 109.37C58.2851 106.33 51.1284 103.353 45.4284 100.44C39.8551 97.5267 35.0418 93.2833 30.9884 87.71C26.9351 82.1367 24.9718 74.98 25.0984 66.24C25.0984 57.5 27.3151 50.09 31.7484 44.01C36.3084 37.8033 42.4518 33.1167 50.1784 29.95C58.0318 26.7833 66.8351 25.2 76.5884 25.2C93.0551 25.2 106.102 29 115.728 36.6C125.482 44.2 130.612 54.9033 131.118 68.71H85.7084C85.5818 64.91 84.6318 62.1867 82.8584 60.54C81.0851 58.8933 78.9318 58.07 76.3984 58.07C74.6251 58.07 73.1684 58.7033 72.0284 59.97C70.8884 61.11 70.3184 62.7567 70.3184 64.91C70.3184 67.95 71.9651 70.4833 75.2584 72.51C78.6784 74.41 84.0618 76.7533 91.4084 79.54C99.8951 82.7067 106.862 85.7467 112.308 88.66C117.882 91.5733 122.695 95.6267 126.748 100.82C130.802 106.013 132.828 112.537 132.828 120.39C132.828 128.623 130.802 136.033 126.748 142.62C122.695 149.08 116.805 154.147 109.078 157.82C101.352 161.493 92.1684 163.33 81.5284 163.33ZM276.658 162H234.478L189.828 94.36V162H147.648V27.48H189.828L234.478 96.26V27.48H276.658V162ZM337.895 27.48V162H295.715V27.48H337.895ZM451.945 27.48V60.92H399.125V79.54H437.125V111.27H399.125V162H356.945V27.48H451.945ZM571.872 27.48V60.92H536.152V162H493.972V60.92H458.632V27.48H571.872ZM712.513 27.48L664.253 121.15V162H622.073V121.15L573.812 27.48H622.073L643.543 75.17L665.013 27.48H712.513Z" fill="white"/>
</g>
<g style="mix-blend-mode:overlay" filter="url(#filter3_d_135_91)">
<path d="M81.5284 163.33C65.4418 163.33 52.1418 159.593 41.6284 152.12C31.2418 144.52 25.6051 133.437 24.7184 118.87H69.5584C70.1918 126.597 73.6118 130.46 79.8184 130.46C82.0984 130.46 83.9984 129.953 85.5184 128.94C87.1651 127.8 87.9884 126.09 87.9884 123.81C87.9884 120.643 86.2784 118.11 82.8584 116.21C79.4384 114.183 74.1184 111.903 66.8984 109.37C58.2851 106.33 51.1284 103.353 45.4284 100.44C39.8551 97.5267 35.0418 93.2833 30.9884 87.71C26.9351 82.1367 24.9718 74.98 25.0984 66.24C25.0984 57.5 27.3151 50.09 31.7484 44.01C36.3084 37.8033 42.4518 33.1167 50.1784 29.95C58.0318 26.7833 66.8351 25.2 76.5884 25.2C93.0551 25.2 106.102 29 115.728 36.6C125.482 44.2 130.612 54.9033 131.118 68.71H85.7084C85.5818 64.91 84.6318 62.1867 82.8584 60.54C81.0851 58.8933 78.9318 58.07 76.3984 58.07C74.6251 58.07 73.1684 58.7033 72.0284 59.97C70.8884 61.11 70.3184 62.7567 70.3184 64.91C70.3184 67.95 71.9651 70.4833 75.2584 72.51C78.6784 74.41 84.0618 76.7533 91.4084 79.54C99.8951 82.7067 106.862 85.7467 112.308 88.66C117.882 91.5733 122.695 95.6267 126.748 100.82C130.802 106.013 132.828 112.537 132.828 120.39C132.828 128.623 130.802 136.033 126.748 142.62C122.695 149.08 116.805 154.147 109.078 157.82C101.352 161.493 92.1684 163.33 81.5284 163.33ZM276.658 162H234.478L189.828 94.36V162H147.648V27.48H189.828L234.478 96.26V27.48H276.658V162ZM337.895 27.48V162H295.715V27.48H337.895ZM451.945 27.48V60.92H399.125V79.54H437.125V111.27H399.125V162H356.945V27.48H451.945ZM571.872 27.48V60.92H536.152V162H493.972V60.92H458.632V27.48H571.872ZM712.513 27.48L664.253 121.15V162H622.073V121.15L573.812 27.48H622.073L643.543 75.17L665.013 27.48H712.513Z" fill="white"/>
</g>
<defs>
<filter id="filter0_d_135_91" x="14.7184" y="15.2" width="707.794" height="158.13" filterUnits="userSpaceOnUse" color-interpolation-filters="sRGB">
<feFlood flood-opacity="0" result="BackgroundImageFix"/>
<feColorMatrix in="SourceAlpha" type="matrix" values="0 0 0 0 0 0 0 0 0 0 0 0 0 0 0 0 0 0 127 0" result="hardAlpha"/>
<feOffset/>
<feGaussianBlur stdDeviation="5"/>
<feComposite in2="hardAlpha" operator="out"/>
<feColorMatrix type="matrix" values="0 0 0 0 1 0 0 0 0 1 0 0 0 0 1 0 0 0 0.25 0"/>
<feBlend mode="normal" in2="BackgroundImageFix" result="effect1_dropShadow_135_91"/>
<feBlend mode="normal" in="SourceGraphic" in2="effect1_dropShadow_135_91" result="shape"/>
</filter>
<filter id="filter1_d_135_91" x="14.7184" y="15.2" width="707.794" height="158.13" filterUnits="userSpaceOnUse" color-interpolation-filters="sRGB">
<feFlood flood-opacity="0" result="BackgroundImageFix"/>
<feColorMatrix in="SourceAlpha" type="matrix" values="0 0 0 0 0 0 0 0 0 0 0 0 0 0 0 0 0 0 127 0" result="hardAlpha"/>
<feOffset/>
<feGaussianBlur stdDeviation="5"/>
<feComposite in2="hardAlpha" operator="out"/>
<feColorMatrix type="matrix" values="0 0 0 0 1 0 0 0 0 1 0 0 0 0 1 0 0 0 0.25 0"/>
<feBlend mode="normal" in2="BackgroundImageFix" result="effect1_dropShadow_135_91"/>
<feBlend mode="normal" in="SourceGraphic" in2="effect1_dropShadow_135_91" result="shape"/>
</filter>
<filter id="filter2_d_135_91" x="14.7184" y="15.2" width="707.794" height="158.13" filterUnits="userSpaceOnUse" color-interpolation-filters="sRGB">
<feFlood flood-opacity="0" result="BackgroundImageFix"/>
<feColorMatrix in="SourceAlpha" type="matrix" values="0 0 0 0 0 0 0 0 0 0 0 0 0 0 0 0 0 0 127 0" result="hardAlpha"/>
<feOffset/>
<feGaussianBlur stdDeviation="5"/>
<feComposite in2="hardAlpha" operator="out"/>
<feColorMatrix type="matrix" values="0 0 0 0 1 0 0 0 0 1 0 0 0 0 1 0 0 0 0.25 0"/>
<feBlend mode="normal" in2="BackgroundImageFix" result="effect1_dropShadow_135_91"/>
<feBlend mode="normal" in="SourceGraphic" in2="effect1_dropShadow_135_91" result="shape"/>
</filter>
<filter id="filter3_d_135_91" x="14.7184" y="15.2" width="707.794" height="158.13" filterUnits="userSpaceOnUse" color-interpolation-filters="sRGB">
<feFlood flood-opacity="0" result="BackgroundImageFix"/>
<feColorMatrix in="SourceAlpha" type="matrix" values="0 0 0 0 0 0 0 0 0 0 0 0 0 0 0 0 0 0 127 0" result="hardAlpha"/>
<feOffset/>
<feGaussianBlur stdDeviation="5"/>
<feComposite in2="hardAlpha" operator="out"/>
<feColorMatrix type="matrix" values="0 0 0 0 1 0 0 0 0 1 0 0 0 0 1 0 0 0 0.25 0"/>
<feBlend mode="normal" in2="BackgroundImageFix" result="effect1_dropShadow_135_91"/>
<feBlend mode="normal" in="SourceGraphic" in2="effect1_dropShadow_135_91" result="shape"/>
</filter>
</defs>
</svg>
